<svg id="Layer_1" data-name="Layer 1" xmlns="http://www.w3.org/2000/svg" viewBox="0 0 1227.82 288.52"><defs><style>.cls-1{fill:#cacfd6;}.cls-2{fill:#2c2e33;}.cls-3{fill:none;}</style></defs><title>Skills</title><rect class="cls-1" x="122.86" y="1.55" width="426.45" height="16.9"/><rect class="cls-1" x="122.86" y="135.44" width="426.45" height="17.57"/><rect class="cls-2" x="122.86" y="1.55" width="350.06" height="16.9"/><rect class="cls-2" x="122.86" y="135.44" width="296.38" height="17.57"/><rect class="cls-1" x="122.86" y="270" width="426.45" height="17.57"/><rect class="cls-2" x="122.86" y="270" width="296.38" height="17.57"/><rect class="cls-1" x="801.38" y="2.33" width="426.45" height="16.9"/><rect class="cls-1" x="801.38" y="136.21" width="426.45" height="17.57"/><rect class="cls-2" x="801.38" y="2.33" width="141.93" height="16.9"/><rect class="cls-2" x="801.38" y="136.21" width="228.06" height="17.57"/><rect class="cls-1" x="801.38" y="270.77" width="426.45" height="16.9"/><path d="M75.63,114.58a4,4,0,0,1-1.48,3.34,6.77,6.77,0,0,1-4.24,1.16H68.23v5.62H66.57V110.42h3.7Q75.63,110.42,75.63,114.58Zm-7.4,3.08h1.5a5.5,5.5,0,0,0,3.19-.72,2.6,2.6,0,0,0,1-2.28,2.45,2.45,0,0,0-.93-2.11,4.86,4.86,0,0,0-2.89-.69H68.23Z" transform="translate(-66.57 -109.5)"/><path d="M85.69,124.7v-6.93a2.78,2.78,0,0,0-.59-2,2.43,2.43,0,0,0-1.87-.64,3.06,3.06,0,0,0-2.46.91,4.66,4.66,0,0,0-.78,3v5.6H78.37V109.5H80v4.6a8.91,8.91,0,0,1-.08,1.38H80a3.3,3.3,0,0,1,1.36-1.22,4.51,4.51,0,0,1,2-.44,4.12,4.12,0,0,1,2.94.93,3.91,3.91,0,0,1,1,3v7Z" transform="translate(-66.57 -109.5)"/><path d="M99.88,119.34a5.93,5.93,0,0,1-1.31,4.08,4.66,4.66,0,0,1-3.65,1.47,4.86,4.86,0,0,1-2.55-.67,4.41,4.41,0,0,1-1.71-1.93,6.67,6.67,0,0,1-.61-3,5.9,5.9,0,0,1,1.31-4.08A4.63,4.63,0,0,1,95,113.8a4.54,4.54,0,0,1,3.57,1.49A5.91,5.91,0,0,1,99.88,119.34Zm-8.15,0a5,5,0,0,0,.82,3.12A2.84,2.84,0,0,0,95,123.54a2.88,2.88,0,0,0,2.42-1.07,5.08,5.08,0,0,0,.82-3.13,5,5,0,0,0-.82-3.1,2.89,2.89,0,0,0-2.44-1.06,2.84,2.84,0,0,0-2.4,1A5.05,5.05,0,0,0,91.73,119.34Z" transform="translate(-66.57 -109.5)"/><path d="M106.18,123.56a5.46,5.46,0,0,0,.83-.07,4.43,4.43,0,0,0,.64-.13v1.24a3.51,3.51,0,0,1-.78.21,5.28,5.28,0,0,1-.92.08q-3.11,0-3.11-3.27v-6.37h-1.53v-.78l1.53-.67.69-2.29h.93V114h3.11v1.26h-3.11v6.3a2.21,2.21,0,0,0,.46,1.49A1.63,1.63,0,0,0,106.18,123.56Z" transform="translate(-66.57 -109.5)"/><path d="M119,119.34a5.93,5.93,0,0,1-1.31,4.08,4.66,4.66,0,0,1-3.65,1.47,4.86,4.86,0,0,1-2.55-.67,4.41,4.41,0,0,1-1.71-1.93,6.67,6.67,0,0,1-.61-3,5.9,5.9,0,0,1,1.31-4.08,4.63,4.63,0,0,1,3.63-1.46,4.54,4.54,0,0,1,3.57,1.49A5.91,5.91,0,0,1,119,119.34Zm-8.15,0a5,5,0,0,0,.82,3.12,2.84,2.84,0,0,0,2.41,1.08,2.88,2.88,0,0,0,2.42-1.07,5.08,5.08,0,0,0,.82-3.13,5,5,0,0,0-.82-3.1,2.89,2.89,0,0,0-2.44-1.06,2.84,2.84,0,0,0-2.4,1A5.05,5.05,0,0,0,110.87,119.34Z" transform="translate(-66.57 -109.5)"/><path d="M128.77,121.78a2.68,2.68,0,0,1-1.11,2.3,5.25,5.25,0,0,1-3.13.81,6.8,6.8,0,0,1-3.32-.67v-1.5a8.21,8.21,0,0,0,1.66.61,6.87,6.87,0,0,0,1.7.23,3.83,3.83,0,0,0,2-.41,1.39,1.39,0,0,0,.15-2.3,8.46,8.46,0,0,0-2.12-1,11.89,11.89,0,0,1-2.12-1,2.9,2.9,0,0,1-.94-.94,2.5,2.5,0,0,1-.31-1.26,2.39,2.39,0,0,1,1.07-2.06,4.92,4.92,0,0,1,2.92-.76,8.53,8.53,0,0,1,3.38.7l-.58,1.32a7.79,7.79,0,0,0-2.92-.66,3.37,3.37,0,0,0-1.74.36,1.11,1.11,0,0,0-.58,1,1.2,1.2,0,0,0,.22.74,2.1,2.1,0,0,0,.7.57,15.5,15.5,0,0,0,1.88.79,7,7,0,0,1,2.57,1.4A2.45,2.45,0,0,1,128.77,121.78Z" transform="translate(-66.57 -109.5)"/><path d="M138.73,124.7v-6.93a2.82,2.82,0,0,0-.59-2,2.43,2.43,0,0,0-1.87-.64,3.07,3.07,0,0,0-2.47.91,4.73,4.73,0,0,0-.77,3v5.6h-1.62V109.5H133v4.6a10.36,10.36,0,0,1-.08,1.38h.1a3.3,3.3,0,0,1,1.36-1.22,4.51,4.51,0,0,1,2-.44,4.12,4.12,0,0,1,2.94.93,3.91,3.91,0,0,1,1,3v7Z" transform="translate(-66.57 -109.5)"/><path d="M152.92,119.34a5.89,5.89,0,0,1-1.32,4.08,4.64,4.64,0,0,1-3.64,1.47,4.81,4.81,0,0,1-2.55-.67,4.5,4.5,0,0,1-1.72-1.93,6.81,6.81,0,0,1-.6-3,5.85,5.85,0,0,1,1.31-4.08A4.63,4.63,0,0,1,148,113.8a4.54,4.54,0,0,1,3.57,1.49A5.91,5.91,0,0,1,152.92,119.34Zm-8.15,0a5,5,0,0,0,.82,3.12,2.83,2.83,0,0,0,2.41,1.08,2.88,2.88,0,0,0,2.42-1.07,5.08,5.08,0,0,0,.82-3.13,5,5,0,0,0-.82-3.1,2.9,2.9,0,0,0-2.44-1.06,2.84,2.84,0,0,0-2.4,1A5.05,5.05,0,0,0,144.77,119.34Z" transform="translate(-66.57 -109.5)"/><path d="M160.74,124.89a4.79,4.79,0,0,1-1.91-.38,3.69,3.69,0,0,1-1.45-1.19h-.11a16.17,16.17,0,0,1,.11,1.78v4.4h-1.62V114h1.32l.23,1.47h.07a3.79,3.79,0,0,1,1.46-1.27,4.42,4.42,0,0,1,1.9-.39,4,4,0,0,1,3.29,1.45,7.73,7.73,0,0,1,0,8.18A3.94,3.94,0,0,1,160.74,124.89Zm-.23-9.71a2.87,2.87,0,0,0-2.37.9,4.73,4.73,0,0,0-.76,2.9v.36a5.26,5.26,0,0,0,.76,3.22,2.85,2.85,0,0,0,2.41,1,2.51,2.51,0,0,0,2.17-1.13,5.35,5.35,0,0,0,.79-3.09,5.13,5.13,0,0,0-.79-3.07A2.56,2.56,0,0,0,160.51,115.18Z" transform="translate(-66.57 -109.5)"/><path d="M76.74,261.23V247H78.4v14.28Z" transform="translate(-66.57 -109.5)"/><path d="M83.69,261.23H82.07V246h1.62Z" transform="translate(-66.57 -109.5)"/><path d="M88.75,261.23H87.13V246h1.62Z" transform="translate(-66.57 -109.5)"/><path d="M93.71,250.52v7a2.78,2.78,0,0,0,.6,1.95,2.41,2.41,0,0,0,1.86.64,3.06,3.06,0,0,0,2.46-.91,4.65,4.65,0,0,0,.78-3v-5.63H101v10.71H99.69l-.24-1.44h-.08A3.28,3.28,0,0,1,98,261a4.6,4.6,0,0,1-2,.42,4.11,4.11,0,0,1-2.93-.93,4,4,0,0,1-1-3v-7Z" transform="translate(-66.57 -109.5)"/><path d="M111.37,258.31a2.67,2.67,0,0,1-1.12,2.3,5.22,5.22,0,0,1-3.12.81,6.78,6.78,0,0,1-3.32-.67v-1.51a8.14,8.14,0,0,0,1.65.62,6.92,6.92,0,0,0,1.71.22,3.83,3.83,0,0,0,2-.4,1.34,1.34,0,0,0,.69-1.24,1.37,1.37,0,0,0-.55-1.07,8.88,8.88,0,0,0-2.11-1.05,11,11,0,0,1-2.12-1,2.9,2.9,0,0,1-.94-.94,2.4,2.4,0,0,1-.31-1.26,2.44,2.44,0,0,1,1.06-2.07,5,5,0,0,1,2.92-.75,8.5,8.5,0,0,1,3.38.7l-.57,1.32a7.86,7.86,0,0,0-2.92-.67,3.26,3.26,0,0,0-1.74.37,1.12,1.12,0,0,0-.59,1,1.24,1.24,0,0,0,.22.73,2.15,2.15,0,0,0,.71.58,15.5,15.5,0,0,0,1.88.79,7,7,0,0,1,2.57,1.4A2.45,2.45,0,0,1,111.37,258.31Z" transform="translate(-66.57 -109.5)"/><path d="M117.46,260.08a5.59,5.59,0,0,0,.83-.06,6.4,6.4,0,0,0,.64-.13v1.24a3.51,3.51,0,0,1-.78.21,6.48,6.48,0,0,1-.92.08q-3.11,0-3.11-3.27v-6.37h-1.53V251l1.53-.67.69-2.29h.93v2.48h3.11v1.26h-3.11v6.3a2.21,2.21,0,0,0,.46,1.49A1.62,1.62,0,0,0,117.46,260.08Z" transform="translate(-66.57 -109.5)"/><path d="M126,250.33a7.1,7.1,0,0,1,1.28.11L127,252a5.35,5.35,0,0,0-1.17-.15,2.83,2.83,0,0,0-2.22,1.06,3.79,3.79,0,0,0-.92,2.62v5.75h-1.62V250.52h1.33l.19,2h.08a4.7,4.7,0,0,1,1.43-1.61A3.3,3.3,0,0,1,126,250.33Z" transform="translate(-66.57 -109.5)"/><path d="M135.81,261.23l-.32-1.53h-.08a4.32,4.32,0,0,1-1.6,1.36,4.8,4.8,0,0,1-2,.36,3.57,3.57,0,0,1-2.5-.82,3,3,0,0,1-.9-2.33q0-3.25,5.18-3.4l1.82-.06v-.66a2.76,2.76,0,0,0-.54-1.87,2.23,2.23,0,0,0-1.73-.6,7.12,7.12,0,0,0-3,.82l-.5-1.24a7.78,7.78,0,0,1,1.73-.67,7.65,7.65,0,0,1,1.89-.24,4.07,4.07,0,0,1,2.84.85,3.51,3.51,0,0,1,.92,2.72v7.31Zm-3.66-1.15a3.27,3.27,0,0,0,2.38-.83,3.09,3.09,0,0,0,.86-2.32v-1l-1.62.07a6,6,0,0,0-2.79.6,1.82,1.82,0,0,0-.85,1.66,1.67,1.67,0,0,0,.53,1.33A2.2,2.2,0,0,0,132.15,260.08Z" transform="translate(-66.57 -109.5)"/><path d="M143.81,260.08a5.62,5.62,0,0,0,1.46-.19v1.24a3.26,3.26,0,0,1-.77.21,6.48,6.48,0,0,1-.92.08c-2.08,0-3.11-1.09-3.11-3.27v-6.37h-1.53V251l1.53-.67.68-2.29h.94v2.48h3.11v1.26h-3.11v6.3a2.16,2.16,0,0,0,.46,1.49A1.62,1.62,0,0,0,143.81,260.08Z" transform="translate(-66.57 -109.5)"/><path d="M156.65,255.86a5.9,5.9,0,0,1-1.32,4.09,4.64,4.64,0,0,1-3.64,1.47,4.81,4.81,0,0,1-2.55-.67,4.52,4.52,0,0,1-1.72-1.94,6.78,6.78,0,0,1-.6-2.95,5.84,5.84,0,0,1,1.31-4.07,4.6,4.6,0,0,1,3.63-1.46,4.51,4.51,0,0,1,3.57,1.49A5.89,5.89,0,0,1,156.65,255.86Zm-8.15,0a5.08,5.08,0,0,0,.82,3.13,2.82,2.82,0,0,0,2.41,1.07,2.86,2.86,0,0,0,2.42-1.07,5,5,0,0,0,.82-3.13,5,5,0,0,0-.82-3.1,2.93,2.93,0,0,0-2.44-1.06,2.84,2.84,0,0,0-2.4,1.05A5,5,0,0,0,148.5,255.86Z" transform="translate(-66.57 -109.5)"/><path d="M164.38,250.33a7.1,7.1,0,0,1,1.28.11l-.23,1.51a5.35,5.35,0,0,0-1.17-.15,2.82,2.82,0,0,0-2.22,1.06,3.8,3.8,0,0,0-.93,2.62v5.75h-1.62V250.52h1.34l.19,2h.07a4.82,4.82,0,0,1,1.44-1.61A3.3,3.3,0,0,1,164.38,250.33Z" transform="translate(-66.57 -109.5)"/><path d="M86.8,393.22V378.94h1.66v14.28Z" transform="translate(-66.57 -109.5)"/><path d="M99.45,393.22V386.3a2.79,2.79,0,0,0-.59-2A2.43,2.43,0,0,0,97,383.7a3.06,3.06,0,0,0-2.46.91,4.56,4.56,0,0,0-.78,3v5.62H92.13v-10.7h1.32l.26,1.46h.08a3.27,3.27,0,0,1,1.4-1.22,4.52,4.52,0,0,1,2-.44,4.07,4.07,0,0,1,2.91.93,4,4,0,0,1,1,3v7Z" transform="translate(-66.57 -109.5)"/><path d="M116.05,385.94a7.22,7.22,0,0,1-1.92,5.41,7.59,7.59,0,0,1-5.53,1.87h-3.95V378.94H109a6.42,6.42,0,0,1,7,7Zm-1.76.06a5.78,5.78,0,0,0-1.4-4.21,5.66,5.66,0,0,0-4.17-1.41h-2.41v11.4h2a6.1,6.1,0,0,0,4.46-1.46A5.76,5.76,0,0,0,114.29,386Z" transform="translate(-66.57 -109.5)"/><path d="M123.51,393.42a4.94,4.94,0,0,1-3.75-1.45,5.6,5.6,0,0,1-1.37-4,6.18,6.18,0,0,1,1.27-4.11,4.23,4.23,0,0,1,3.43-1.53,4,4,0,0,1,3.18,1.32,5.11,5.11,0,0,1,1.17,3.5v1h-7.37a4.23,4.23,0,0,0,1,2.86,3.3,3.3,0,0,0,2.55,1,8.6,8.6,0,0,0,3.41-.72v1.44a7.82,7.82,0,0,1-1.62.53A8.9,8.9,0,0,1,123.51,393.42Zm-.44-9.74a2.65,2.65,0,0,0-2.06.84,3.86,3.86,0,0,0-.9,2.32h5.59a3.56,3.56,0,0,0-.68-2.35A2.42,2.42,0,0,0,123.07,383.68Z" transform="translate(-66.57 -109.5)"/><path d="M137.11,390.3a2.67,2.67,0,0,1-1.11,2.3,5.27,5.27,0,0,1-3.13.82,6.79,6.79,0,0,1-3.32-.68v-1.5a8.21,8.21,0,0,0,1.66.61,6.87,6.87,0,0,0,1.7.23,3.83,3.83,0,0,0,2-.41,1.39,1.39,0,0,0,.15-2.3,8.46,8.46,0,0,0-2.12-1.05,12,12,0,0,1-2.12-1,2.93,2.93,0,0,1-.94-1,2.58,2.58,0,0,1,.76-3.32,4.92,4.92,0,0,1,2.92-.76,8.71,8.71,0,0,1,3.38.7l-.58,1.32a7.79,7.79,0,0,0-2.92-.66,3.37,3.37,0,0,0-1.74.36,1.11,1.11,0,0,0-.58,1,1.19,1.19,0,0,0,.22.73,2.24,2.24,0,0,0,.7.58,17.37,17.37,0,0,0,1.88.79,6.89,6.89,0,0,1,2.57,1.39A2.45,2.45,0,0,1,137.11,390.3Z" transform="translate(-66.57 -109.5)"/><path d="M139.61,379.62a1.09,1.09,0,0,1,.27-.82,1,1,0,0,1,.69-.26.94.94,0,0,1,.67.27,1,1,0,0,1,.28.81,1.06,1.06,0,0,1-.28.81.94.94,0,0,1-.67.27,1,1,0,0,1-.69-.27A1.1,1.1,0,0,1,139.61,379.62Zm1.76,13.6h-1.62v-10.7h1.62Z" transform="translate(-66.57 -109.5)"/><path d="M153.57,382.52v1l-2,.24a3,3,0,0,1,.49.89,3.48,3.48,0,0,1,.22,1.25,3.18,3.18,0,0,1-1.08,2.51,5.13,5.13,0,0,1-3.85.85,1.6,1.6,0,0,0-1,1.38.7.7,0,0,0,.36.65,2.62,2.62,0,0,0,1.24.21h1.9a4.26,4.26,0,0,1,2.67.73,2.55,2.55,0,0,1,.93,2.13,3,3,0,0,1-1.43,2.71,7.63,7.63,0,0,1-4.16.93,5.65,5.65,0,0,1-3.23-.78,2.66,2.66,0,0,1-.52-3.89,3.2,3.2,0,0,1,1.76-1,1.74,1.74,0,0,1-.69-.58,1.55,1.55,0,0,1-.28-.9,1.73,1.73,0,0,1,.32-1,3.14,3.14,0,0,1,1-.85,2.9,2.9,0,0,1-1.35-1.16,3.41,3.41,0,0,1-.52-1.88,3.48,3.48,0,0,1,1.05-2.71,4.34,4.34,0,0,1,3-.95,5.36,5.36,0,0,1,1.51.2ZM145,395a1.45,1.45,0,0,0,.73,1.32,4.16,4.16,0,0,0,2.1.44,5.81,5.81,0,0,0,3-.61,1.85,1.85,0,0,0,1-1.65,1.32,1.32,0,0,0-.54-1.21,4.24,4.24,0,0,0-2-.33h-1.95a2.55,2.55,0,0,0-1.71.52A1.9,1.9,0,0,0,145,395Zm.88-9.08a2.18,2.18,0,0,0,.63,1.7,2.53,2.53,0,0,0,1.77.58,2.07,2.07,0,0,0,2.37-2.3,2.13,2.13,0,0,0-2.4-2.42,2.39,2.39,0,0,0-1.76.62A2.47,2.47,0,0,0,145.91,385.94Z" transform="translate(-66.57 -109.5)"/><path d="M163.09,393.22V386.3a2.79,2.79,0,0,0-.6-2,2.43,2.43,0,0,0-1.86-.64,3.06,3.06,0,0,0-2.46.91,4.5,4.5,0,0,0-.79,3v5.62h-1.62v-10.7h1.32l.26,1.46h.08a3.27,3.27,0,0,1,1.4-1.22,4.55,4.55,0,0,1,2-.44,4.07,4.07,0,0,1,2.91.93,4,4,0,0,1,1,3v7Z" transform="translate(-66.57 -109.5)"/><path d="M698.92,118h4.86v7a15.47,15.47,0,0,1-2.31.54,16.76,16.76,0,0,1-2.71.19,6.55,6.55,0,0,1-5-1.93,7.59,7.59,0,0,1-1.81-5.41,8.25,8.25,0,0,1,.89-3.9,6.13,6.13,0,0,1,2.58-2.56,8.31,8.31,0,0,1,3.93-.88,10.76,10.76,0,0,1,4.26.84l-.64,1.47a9.48,9.48,0,0,0-3.72-.83,5.33,5.33,0,0,0-4.08,1.56,6,6,0,0,0-1.46,4.3,6.18,6.18,0,0,0,1.41,4.39,5.41,5.41,0,0,0,4.14,1.49,12.32,12.32,0,0,0,2.91-.34v-4.39h-3.2Z" transform="translate(-66.57 -109.5)"/><path d="M716.2,120.11a5.9,5.9,0,0,1-1.32,4.09,4.64,4.64,0,0,1-3.64,1.47,4.81,4.81,0,0,1-2.55-.68,4.38,4.38,0,0,1-1.72-1.93,6.64,6.64,0,0,1-.61-3,5.93,5.93,0,0,1,1.31-4.08,4.63,4.63,0,0,1,3.63-1.46,4.51,4.51,0,0,1,3.57,1.5A5.82,5.82,0,0,1,716.2,120.11Zm-8.16,0a5.15,5.15,0,0,0,.82,3.13,3.26,3.26,0,0,0,4.83,0,5,5,0,0,0,.83-3.13,5,5,0,0,0-.83-3.1,2.88,2.88,0,0,0-2.43-1.06,2.85,2.85,0,0,0-2.41,1A5,5,0,0,0,708,120.11Z" transform="translate(-66.57 -109.5)"/><path d="M728.28,120.11A5.9,5.9,0,0,1,727,124.2a4.64,4.64,0,0,1-3.64,1.47,4.81,4.81,0,0,1-2.55-.68,4.38,4.38,0,0,1-1.72-1.93,6.64,6.64,0,0,1-.61-3,5.93,5.93,0,0,1,1.31-4.08,4.63,4.63,0,0,1,3.63-1.46,4.51,4.51,0,0,1,3.57,1.5A5.82,5.82,0,0,1,728.28,120.11Zm-8.16,0a5.15,5.15,0,0,0,.82,3.13,3.26,3.26,0,0,0,4.83,0,5,5,0,0,0,.83-3.13,5,5,0,0,0-.83-3.1,2.88,2.88,0,0,0-2.43-1.06,2.85,2.85,0,0,0-2.41,1A5,5,0,0,0,720.12,120.11Z" transform="translate(-66.57 -109.5)"/><path d="M739.88,114.77v1l-2,.23a3.52,3.52,0,0,1,.48.89,3.31,3.31,0,0,1,.22,1.25,3.19,3.19,0,0,1-1.07,2.51,4.37,4.37,0,0,1-2.95.94,5.11,5.11,0,0,1-.9-.08,1.59,1.59,0,0,0-1,1.37.69.69,0,0,0,.36.65,2.65,2.65,0,0,0,1.24.21h1.9a4.22,4.22,0,0,1,2.67.74,2.52,2.52,0,0,1,.93,2.12,3,3,0,0,1-1.42,2.71,7.56,7.56,0,0,1-4.16.94,5.7,5.7,0,0,1-3.24-.78,2.53,2.53,0,0,1-1.14-2.21,2.46,2.46,0,0,1,.63-1.69,3.13,3.13,0,0,1,1.75-1,1.62,1.62,0,0,1-.68-.57,1.51,1.51,0,0,1-.28-.91,1.74,1.74,0,0,1,.31-1,3.46,3.46,0,0,1,1-.85,2.82,2.82,0,0,1-1.36-1.16,3.84,3.84,0,0,1,.54-4.58,4.25,4.25,0,0,1,3-1,5.49,5.49,0,0,1,1.52.2Zm-8.54,12.5a1.46,1.46,0,0,0,.74,1.32,4,4,0,0,0,2.1.45,5.94,5.94,0,0,0,3-.61,1.88,1.88,0,0,0,1-1.66,1.29,1.29,0,0,0-.54-1.2,4.1,4.1,0,0,0-2-.34h-1.94a2.51,2.51,0,0,0-1.72.53A1.87,1.87,0,0,0,731.34,127.27Zm.88-9.07a2.17,2.17,0,0,0,.64,1.7,2.54,2.54,0,0,0,1.76.57,2.07,2.07,0,0,0,2.38-2.3,2.12,2.12,0,0,0-2.4-2.41,2.37,2.37,0,0,0-1.76.61A2.48,2.48,0,0,0,732.22,118.2Z" transform="translate(-66.57 -109.5)"/><path d="M743.7,125.47h-1.62V110.28h1.62Z" transform="translate(-66.57 -109.5)"/><path d="M751.66,125.67a4.9,4.9,0,0,1-3.75-1.45,5.6,5.6,0,0,1-1.37-4,6.18,6.18,0,0,1,1.27-4.11,4.23,4.23,0,0,1,3.43-1.53,4,4,0,0,1,3.18,1.33,5.06,5.06,0,0,1,1.17,3.49v1h-7.37a4.28,4.28,0,0,0,.95,2.87,3.29,3.29,0,0,0,2.54,1,8.61,8.61,0,0,0,3.42-.72V125a8.54,8.54,0,0,1-1.62.54A9.8,9.8,0,0,1,751.66,125.67Zm-.44-9.74a2.65,2.65,0,0,0-2.06.84,3.89,3.89,0,0,0-.9,2.33h5.59a3.58,3.58,0,0,0-.68-2.35A2.4,2.4,0,0,0,751.22,115.93Z" transform="translate(-66.57 -109.5)"/><path d="M772.77,125.47,771,120.93h-5.72l-1.76,4.54h-1.68l5.65-14.33h1.39l5.62,14.33Zm-2.3-6L768.81,115c-.21-.56-.43-1.24-.66-2.06a18.33,18.33,0,0,1-.61,2.06l-1.68,4.43Z" transform="translate(-66.57 -109.5)"/><path d="M783.53,125.47v-6.92a2.82,2.82,0,0,0-.59-2,2.44,2.44,0,0,0-1.87-.65,3.06,3.06,0,0,0-2.46.91,4.59,4.59,0,0,0-.78,3v5.61h-1.62v-10.7h1.32l.26,1.46h.08a3.31,3.31,0,0,1,1.39-1.22,4.56,4.56,0,0,1,2-.44,4.1,4.1,0,0,1,2.91.94,4,4,0,0,1,1,3v7Z" transform="translate(-66.57 -109.5)"/><path d="M795.06,125.47l-.32-1.52h-.08a4.48,4.48,0,0,1-1.59,1.36,4.85,4.85,0,0,1-2,.36,3.64,3.64,0,0,1-2.5-.82,3,3,0,0,1-.9-2.34q0-3.24,5.19-3.39l1.81-.06v-.67a2.72,2.72,0,0,0-.54-1.86,2.23,2.23,0,0,0-1.73-.6,7.19,7.19,0,0,0-3,.82l-.5-1.24a7.86,7.86,0,0,1,1.74-.67,7.54,7.54,0,0,1,1.89-.25,4.09,4.09,0,0,1,2.83.85,3.55,3.55,0,0,1,.93,2.73v7.3Zm-3.66-1.14a3.31,3.31,0,0,0,2.38-.83,3,3,0,0,0,.86-2.32v-1l-1.62.07a5.7,5.7,0,0,0-2.78.6,1.78,1.78,0,0,0-.86,1.65,1.68,1.68,0,0,0,.53,1.34A2.2,2.2,0,0,0,791.4,124.33Z" transform="translate(-66.57 -109.5)"/><path d="M801.23,125.47h-1.62V110.28h1.62Z" transform="translate(-66.57 -109.5)"/><path d="M803,114.77h1.74l2.35,6.1a23.24,23.24,0,0,1,1,3h.08c.09-.33.26-.9.53-1.7s1.16-3.28,2.66-7.42H813L808.4,127a6,6,0,0,1-1.59,2.56,3.38,3.38,0,0,1-2.24.76,6.56,6.56,0,0,1-1.47-.17v-1.3a5.54,5.54,0,0,0,1.2.12,2.49,2.49,0,0,0,2.39-1.88l.59-1.52Z" transform="translate(-66.57 -109.5)"/><path d="M818.2,124.33a5.59,5.59,0,0,0,.83-.06,5.24,5.24,0,0,0,.63-.14v1.25a3.26,3.26,0,0,1-.77.21,6.49,6.49,0,0,1-.93.08q-3.11,0-3.1-3.27V116h-1.53v-.78l1.53-.68.68-2.28h.94v2.48h3.11V116h-3.11v6.3a2.13,2.13,0,0,0,.46,1.48A1.57,1.57,0,0,0,818.2,124.33Z" transform="translate(-66.57 -109.5)"/><path d="M821.67,111.87a1.11,1.11,0,0,1,.27-.82,1,1,0,0,1,1.36,0,1,1,0,0,1,.28.81,1,1,0,0,1-.28.81,1,1,0,0,1-.68.27.93.93,0,0,1-.68-.27A1.08,1.08,0,0,1,821.67,111.87Zm1.75,13.6H821.8v-10.7h1.62Z" transform="translate(-66.57 -109.5)"/><path d="M831.14,125.67a4.58,4.58,0,0,1-3.6-1.43,5.91,5.91,0,0,1-1.27-4,6.08,6.08,0,0,1,1.29-4.15,4.65,4.65,0,0,1,3.69-1.47,7.41,7.41,0,0,1,1.54.17,5.05,5.05,0,0,1,1.21.39l-.5,1.38a7.64,7.64,0,0,0-1.17-.36,5.51,5.51,0,0,0-1.12-.14c-2.18,0-3.26,1.39-3.26,4.16a5,5,0,0,0,.79,3,2.78,2.78,0,0,0,2.36,1,7.24,7.24,0,0,0,2.74-.57v1.43A5.81,5.81,0,0,1,831.14,125.67Z" transform="translate(-66.57 -109.5)"/><path d="M843.29,122.55a2.67,2.67,0,0,1-1.12,2.31,5.22,5.22,0,0,1-3.12.81,6.77,6.77,0,0,1-3.32-.68v-1.5a7.92,7.92,0,0,0,1.65.62,6.92,6.92,0,0,0,1.71.22,3.89,3.89,0,0,0,1.95-.4,1.4,1.4,0,0,0,.14-2.31,8.17,8.17,0,0,0-2.11-1.05,11.18,11.18,0,0,1-2.13-1,2.86,2.86,0,0,1-.93-.94,2.45,2.45,0,0,1-.31-1.26,2.4,2.4,0,0,1,1.06-2.07,5,5,0,0,1,2.92-.76,8.51,8.51,0,0,1,3.38.71l-.57,1.32a7.67,7.67,0,0,0-2.92-.67,3.37,3.37,0,0,0-1.74.36,1.13,1.13,0,0,0-.59,1,1.24,1.24,0,0,0,.22.73,2.17,2.17,0,0,0,.71.58,17,17,0,0,0,1.87.79,7,7,0,0,1,2.58,1.4A2.46,2.46,0,0,1,843.29,122.55Z" transform="translate(-66.57 -109.5)"/><path d="M731.82,251.62a4,4,0,0,1-1.48,3.34,6.71,6.71,0,0,1-4.24,1.17h-1.68v5.61h-1.66V247.46h3.71C730,247.46,731.82,248.85,731.82,251.62Zm-7.4,3.08h1.5a5.59,5.59,0,0,0,3.19-.71,2.64,2.64,0,0,0,1-2.29,2.48,2.48,0,0,0-.93-2.11,4.86,4.86,0,0,0-2.89-.69h-1.86Z" transform="translate(-66.57 -109.5)"/><path d="M739.44,250.84a6.12,6.12,0,0,1,1.28.12l-.22,1.5a6,6,0,0,0-1.17-.14,2.84,2.84,0,0,0-2.22,1.05,3.84,3.84,0,0,0-.93,2.63v5.74h-1.62V251h1.34l.18,2h.08a4.73,4.73,0,0,1,1.44-1.61A3.2,3.2,0,0,1,739.44,250.84Z" transform="translate(-66.57 -109.5)"/><path d="M747.25,261.94a4.94,4.94,0,0,1-3.75-1.45,5.6,5.6,0,0,1-1.37-4,6.18,6.18,0,0,1,1.27-4.11,4.23,4.23,0,0,1,3.43-1.53,4,4,0,0,1,3.18,1.33,5.06,5.06,0,0,1,1.17,3.49v1h-7.37a4.23,4.23,0,0,0,1,2.86,3.3,3.3,0,0,0,2.55,1,8.6,8.6,0,0,0,3.41-.72v1.44a8.54,8.54,0,0,1-1.62.54A9.72,9.72,0,0,1,747.25,261.94Zm-.44-9.74a2.65,2.65,0,0,0-2.06.84,3.86,3.86,0,0,0-.9,2.32h5.59a3.51,3.51,0,0,0-.68-2.34A2.4,2.4,0,0,0,746.81,252.2Z" transform="translate(-66.57 -109.5)"/><path d="M767.59,261.74v-7a2.88,2.88,0,0,0-.55-1.92,2.1,2.1,0,0,0-1.7-.64,2.72,2.72,0,0,0-2.23.87,4.07,4.07,0,0,0-.73,2.67v6h-1.62v-7a2.93,2.93,0,0,0-.54-1.92,2.13,2.13,0,0,0-1.71-.64,2.63,2.63,0,0,0-2.23.91,4.9,4.9,0,0,0-.71,3v5.61H754V251h1.31l.27,1.46h.08a3.17,3.17,0,0,1,1.29-1.22,4,4,0,0,1,1.87-.44c1.67,0,2.77.61,3.28,1.82h.08a3.43,3.43,0,0,1,1.39-1.33,4.34,4.34,0,0,1,2.07-.49,3.61,3.61,0,0,1,2.72.94,4.17,4.17,0,0,1,.9,3v7Z" transform="translate(-66.57 -109.5)"/><path d="M772.41,248.14a1.06,1.06,0,0,1,.28-.82,1,1,0,0,1,.68-.26.94.94,0,0,1,.67.27,1,1,0,0,1,.29.81,1.07,1.07,0,0,1-.29.81.94.94,0,0,1-.67.27.93.93,0,0,1-.68-.27A1.06,1.06,0,0,1,772.41,248.14Zm1.76,13.6h-1.62V251h1.62Z" transform="translate(-66.57 -109.5)"/><path d="M782.13,261.94a5,5,0,0,1-3.75-1.45,5.6,5.6,0,0,1-1.37-4,6.18,6.18,0,0,1,1.28-4.11,4.22,4.22,0,0,1,3.42-1.53,4,4,0,0,1,3.18,1.33,5.07,5.07,0,0,1,1.18,3.49v1h-7.38a4.23,4.23,0,0,0,.95,2.86,3.31,3.31,0,0,0,2.55,1,8.68,8.68,0,0,0,3.42-.72v1.44a8.86,8.86,0,0,1-1.63.54A9.72,9.72,0,0,1,782.13,261.94Zm-.44-9.74a2.67,2.67,0,0,0-2.06.84,3.86,3.86,0,0,0-.9,2.32h5.6a3.51,3.51,0,0,0-.69-2.34A2.37,2.37,0,0,0,781.69,252.2Z" transform="translate(-66.57 -109.5)"/><path d="M793.71,250.84A6.19,6.19,0,0,1,795,251l-.22,1.5a6.14,6.14,0,0,0-1.18-.14,2.87,2.87,0,0,0-2.22,1.05,3.89,3.89,0,0,0-.92,2.63v5.74h-1.62V251h1.34l.18,2h.08a4.73,4.73,0,0,1,1.44-1.61A3.2,3.2,0,0,1,793.71,250.84Z" transform="translate(-66.57 -109.5)"/><path d="M801.51,261.94a4.92,4.92,0,0,1-3.74-1.45,5.56,5.56,0,0,1-1.37-4,6.18,6.18,0,0,1,1.27-4.11,4.22,4.22,0,0,1,3.42-1.53,4,4,0,0,1,3.19,1.33,5.06,5.06,0,0,1,1.17,3.49v1h-7.37a4.23,4.23,0,0,0,.95,2.86,3.29,3.29,0,0,0,2.54,1,8.64,8.64,0,0,0,3.42-.72v1.44a8.4,8.4,0,0,1-1.63.54A9.64,9.64,0,0,1,801.51,261.94Zm-.44-9.74A2.65,2.65,0,0,0,799,253a3.86,3.86,0,0,0-.9,2.32h5.59A3.57,3.57,0,0,0,803,253,2.4,2.4,0,0,0,801.07,252.2Z" transform="translate(-66.57 -109.5)"/><path d="M822.71,251.62a4,4,0,0,1-1.48,3.34,6.71,6.71,0,0,1-4.24,1.17h-1.68v5.61h-1.66V247.46h3.7Q822.71,247.46,822.71,251.62Zm-7.4,3.08h1.5A5.59,5.59,0,0,0,820,254a2.64,2.64,0,0,0,1-2.29,2.48,2.48,0,0,0-.93-2.11,4.86,4.86,0,0,0-2.89-.69h-1.86Z" transform="translate(-66.57 -109.5)"/><path d="M830.33,250.84a6.19,6.19,0,0,1,1.28.12l-.22,1.5a6.13,6.13,0,0,0-1.17-.14,2.87,2.87,0,0,0-2.23,1.05,3.89,3.89,0,0,0-.92,2.63v5.74h-1.62V251h1.34l.18,2h.08a4.73,4.73,0,0,1,1.44-1.61A3.2,3.2,0,0,1,830.33,250.84Z" transform="translate(-66.57 -109.5)"/><path d="M842.85,256.38a5.92,5.92,0,0,1-1.32,4.09,4.62,4.62,0,0,1-3.64,1.47,4.81,4.81,0,0,1-2.55-.68,4.5,4.5,0,0,1-1.72-1.93,6.78,6.78,0,0,1-.6-2.95,5.89,5.89,0,0,1,1.31-4.08,4.63,4.63,0,0,1,3.63-1.46,4.51,4.51,0,0,1,3.57,1.5A5.87,5.87,0,0,1,842.85,256.38Zm-8.15,0a5.08,5.08,0,0,0,.82,3.13,3.26,3.26,0,0,0,4.83,0,5.06,5.06,0,0,0,.82-3.13,5,5,0,0,0-.82-3.1,3.31,3.31,0,0,0-4.84,0A5.05,5.05,0,0,0,834.7,256.38Z" transform="translate(-66.57 -109.5)"/><path d="M763.21,396.56,761.44,392h-5.73L754,396.56h-1.68l5.64-14.34h1.4l5.61,14.34Zm-2.29-6-1.66-4.42c-.22-.56-.44-1.25-.67-2.06a17.5,17.5,0,0,1-.61,2.06l-1.68,4.42Z" transform="translate(-66.57 -109.5)"/><path d="M773.94,395.12h-.09a3.81,3.81,0,0,1-3.36,1.63,4,4,0,0,1-3.27-1.43,6.31,6.31,0,0,1-1.16-4.08,6.46,6.46,0,0,1,1.17-4.12,4,4,0,0,1,3.26-1.46,3.91,3.91,0,0,1,3.34,1.58H774l-.07-.77,0-.75v-4.36h1.62v15.2h-1.32Zm-3.25.28a3,3,0,0,0,2.41-.91,4.53,4.53,0,0,0,.75-2.91v-.34a5.34,5.34,0,0,0-.76-3.25,2.86,2.86,0,0,0-2.42-1,2.48,2.48,0,0,0-2.18,1.11,5.53,5.53,0,0,0-.75,3.13,5.3,5.3,0,0,0,.75,3.09A2.53,2.53,0,0,0,770.69,395.4Z" transform="translate(-66.57 -109.5)"/><path d="M788.15,391.2a5.89,5.89,0,0,1-1.32,4.08,4.66,4.66,0,0,1-3.65,1.47,4.8,4.8,0,0,1-2.54-.67,4.37,4.37,0,0,1-1.72-1.93,6.67,6.67,0,0,1-.61-2.95,5.9,5.9,0,0,1,1.31-4.08,4.63,4.63,0,0,1,3.63-1.46,4.54,4.54,0,0,1,3.57,1.49A5.92,5.92,0,0,1,788.15,391.2Zm-8.16,0a5,5,0,0,0,.82,3.12,2.84,2.84,0,0,0,2.41,1.08,2.88,2.88,0,0,0,2.42-1.07,5.08,5.08,0,0,0,.83-3.13,5,5,0,0,0-.83-3.1A2.89,2.89,0,0,0,783.2,387a2.84,2.84,0,0,0-2.4,1A5.05,5.05,0,0,0,780,391.2Z" transform="translate(-66.57 -109.5)"/><path d="M796,385.68a4,4,0,0,1,3.27,1.44,7.69,7.69,0,0,1,0,8.17,3.93,3.93,0,0,1-3.26,1.46,4.72,4.72,0,0,1-1.91-.38,3.62,3.62,0,0,1-1.45-1.19h-.12l-.34,1.38H791v-15.2h1.62v3.69c0,.83,0,1.57-.08,2.23h.08A3.83,3.83,0,0,1,796,385.68Zm-.24,1.36a2.82,2.82,0,0,0-2.39.95,7.35,7.35,0,0,0,0,6.43,2.85,2.85,0,0,0,2.41,1,2.52,2.52,0,0,0,2.23-1.09,5.59,5.59,0,0,0,.73-3.13,5.38,5.38,0,0,0-.73-3.12A2.61,2.61,0,0,0,795.73,387Z" transform="translate(-66.57 -109.5)"/><path d="M807.76,396.75a4.91,4.91,0,0,1-3.74-1.44,5.59,5.59,0,0,1-1.37-4,6.22,6.22,0,0,1,1.27-4.11,4.25,4.25,0,0,1,3.42-1.52,4,4,0,0,1,3.19,1.32,5.1,5.1,0,0,1,1.17,3.49v1h-7.37a4.23,4.23,0,0,0,.95,2.86,3.29,3.29,0,0,0,2.54,1,8.64,8.64,0,0,0,3.42-.72v1.44a7.82,7.82,0,0,1-1.62.53A9.07,9.07,0,0,1,807.76,396.75Zm-.43-9.73a2.65,2.65,0,0,0-2.06.84,3.86,3.86,0,0,0-.9,2.32H810a3.62,3.62,0,0,0-.68-2.35A2.42,2.42,0,0,0,807.33,387Z" transform="translate(-66.57 -109.5)"/><path d="M829.41,396.56h-1.89l-3.84-6.28-3.9,6.28H818l4.74-7.46-4.42-6.82h1.84l3.54,5.66,3.58-5.66h1.76L824.64,389Z" transform="translate(-66.57 -109.5)"/><path d="M842.84,389.28a7.22,7.22,0,0,1-1.92,5.41,7.62,7.62,0,0,1-5.52,1.87h-3.95V382.28h4.37a6.41,6.41,0,0,1,7,7Zm-1.76.06a5.74,5.74,0,0,0-1.4-4.21,5.62,5.62,0,0,0-4.16-1.41h-2.41v11.4h2a6.11,6.11,0,0,0,4.46-1.46A5.75,5.75,0,0,0,841.08,389.34Z" transform="translate(-66.57 -109.5)"/><rect class="cls-2" x="801.38" y="270.77" width="350.06" height="16.9"/><path class="cls-3" d="M615.88,111.05" transform="translate(-66.57 -109.5)"/></svg>