<svg id="Layer_1" data-name="Layer 1" xmlns="http://www.w3.org/2000/svg" viewBox="0 0 256.24 231.02"><defs><style>.cls-1{fill:#fff;}.cls-2,.cls-3,.cls-4,.cls-5,.cls-6{fill:none;stroke:#fff;stroke-miterlimit:10;}.cls-2{stroke-width:4px;}.cls-3{stroke-width:1.5px;}.cls-4{stroke-width:0.75px;}.cls-5{stroke-width:0.5px;}</style></defs><title>web_logo</title><path class="cls-1" d="M212.25,189.67a.82.82,0,1,1,1.07,1.23c-4.08,3.9-23,19.13-40.73,29.4-7.61,4.42-17.7,9.2-27.26,10.27-48,5,20.89-117,47.45-115.8a12.33,12.33,0,0,1,11.5,8.5c9.21,24.25-38.24,54.53-57.19,63.39-2.83,7.25-15,38.59-2.12,41.43,8.32,1.77,23.9-7.44,26.74-9C189.41,208.79,208.18,193.56,212.25,189.67Zm-9.38-65.87a11.69,11.69,0,0,0-6.55-6.73c-18.06,6.55-41.08,50.46-48.16,67.46C165.69,175.68,211.37,146.46,202.87,123.8Z" transform="translate(-81.87 -89.72)"/><path class="cls-1" d="M210.48,191.26a53.61,53.61,0,0,1,6-4.78c5-3.37,16.29-8.68,15.05,2.12-.71,6-3.18,17-6.9,29,2.3-4.6,5.49-10.62,8.67-16.29a101.17,101.17,0,0,1,8.32-12.75c2.31-3,8-9,11.51-4.07,3,4.6,1.24,15.23-.53,20.54,19.48-2.13,27.8,0,44.27-15.4.7-.71,1.94.53,1.06,1.23-17.18,16.12-25.67,13.46-45.86,15.94-1.59,4.78-4.43,10.62-8.67,13.63-8.86,6-17.71-8.5-1.07-13.28,1.6-5.49,2.66-13.1,1.42-18.77-.18.36-.53.71-.89,1.25a123,123,0,0,0-8.32,12.74c-2.3,4.25-10.09,20-12.75,24.61-2.47,7.44-5.13,14.88-8.14,22.31a62.22,62.22,0,0,1,6.2,1.95c.88.53.35,1.95-.53,1.59-2.31-.88-4.43-1.59-6.38-2.12-5.31,12.39-10.8,22.13-15.76,24.61-10.44,5-15-6.37-12.39-14.87,2.65-9,11-13.1,19.83-12.75a299.3,299.3,0,0,0,10.09-30.1c.71-2.3,8.15-26.91,5.67-30.63-1.06-1.59-7.79,4.43-8.85,5.49C210.84,193.21,209.77,192.14,210.48,191.26ZM186.4,260.84c-1.24,4.25-1.06,10.8,3.19,13.28,4.43-2.65,9.74-12.57,14.52-24.79C196.14,249.16,188.71,252.87,186.4,260.84ZM241.64,209c-3.71,1.24-9.56,5.49-6,9.74C238.28,216.58,240.23,213,241.64,209Z" transform="translate(-81.87 -89.72)"/><path class="cls-2" d="M322.64,205.05a113.53,113.53,0,0,0-214.95-50.77q-1.74,3.48-3.24,7.06" transform="translate(-81.87 -89.72)"/><path class="cls-2" d="M95.63,204.17a113.52,113.52,0,0,0,214.72,52.44c1.14-2.25,2.21-4.54,3.19-6.87" transform="translate(-81.87 -89.72)"/><path class="cls-3" d="M144.9,186.09c-6.44,2.45-27.61,9.53-48.92-.14a55.54,55.54,0,0,1-13.62-8.81" transform="translate(-81.87 -89.72)"/><path class="cls-1" d="M262.48,228.33a2.83,2.83,0,0,1-.93,2.28,4,4,0,0,1-2.64.78h-.84v3.28h-2v-9.21h2.95a4,4,0,0,1,2.55.72A2.63,2.63,0,0,1,262.48,228.33Zm-4.41,1.46h.64a2.2,2.2,0,0,0,1.35-.35,1.26,1.26,0,0,0,.45-1,1.29,1.29,0,0,0-.38-1,1.8,1.8,0,0,0-1.17-.32h-.89Z" transform="translate(-81.87 -89.72)"/><path class="cls-1" d="M273.87,230.05a5,5,0,0,1-1.13,3.52,4.92,4.92,0,0,1-6.51,0A5.06,5.06,0,0,1,265.1,230a5,5,0,0,1,1.14-3.52,4.28,4.28,0,0,1,3.26-1.21,4.21,4.21,0,0,1,3.25,1.22A5,5,0,0,1,273.87,230.05Zm-6.72,0a3.87,3.87,0,0,0,.58,2.33,2.08,2.08,0,0,0,1.76.78c1.56,0,2.34-1,2.34-3.11s-.78-3.11-2.33-3.11a2.08,2.08,0,0,0-1.76.78A3.86,3.86,0,0,0,267.15,230.05Z" transform="translate(-81.87 -89.72)"/><path class="cls-1" d="M279,231.13v3.54h-2v-9.21h2.69a4.57,4.57,0,0,1,2.78.68,2.45,2.45,0,0,1,.9,2.08,2.42,2.42,0,0,1-.45,1.44,3,3,0,0,1-1.26,1c1.38,2.07,2.29,3.41,2.71,4h-2.17l-2.2-3.54Zm0-1.58h.63a2.48,2.48,0,0,0,1.37-.31,1.12,1.12,0,0,0,.44-1,1,1,0,0,0-.45-.94,2.81,2.81,0,0,0-1.4-.27H279Z" transform="translate(-81.87 -89.72)"/><path class="cls-1" d="M290.44,234.67h-1.95v-7.59H286v-1.62h6.95v1.62h-2.5Z" transform="translate(-81.87 -89.72)"/><path class="cls-1" d="M297.58,234.67h-1.93v-9.21h5.28v1.6h-3.35v2.37h3.12V231h-3.12Z" transform="translate(-81.87 -89.72)"/><path class="cls-1" d="M312.39,230.05a5,5,0,0,1-1.13,3.52,4.92,4.92,0,0,1-6.51,0,5.06,5.06,0,0,1-1.13-3.53,5,5,0,0,1,1.14-3.52,5,5,0,0,1,6.51,0A5,5,0,0,1,312.39,230.05Zm-6.72,0a3.87,3.87,0,0,0,.58,2.33,2.06,2.06,0,0,0,1.76.78c1.55,0,2.33-1,2.33-3.11s-.77-3.11-2.32-3.11a2.06,2.06,0,0,0-1.76.78A3.8,3.8,0,0,0,305.67,230.05Z" transform="translate(-81.87 -89.72)"/><path class="cls-1" d="M315.59,234.67v-9.21h2v7.6h3.73v1.61Z" transform="translate(-81.87 -89.72)"/><path class="cls-1" d="M324.18,234.67v-9.21h1.95v9.21Z" transform="translate(-81.87 -89.72)"/><path class="cls-1" d="M338.1,230.05a5,5,0,0,1-1.13,3.52,4.91,4.91,0,0,1-6.5,0,5,5,0,0,1-1.14-3.53,5,5,0,0,1,1.14-3.52,4.28,4.28,0,0,1,3.26-1.21,4.21,4.21,0,0,1,3.25,1.22A5,5,0,0,1,338.1,230.05Zm-6.72,0a3.8,3.8,0,0,0,.59,2.33,2,2,0,0,0,1.75.78c1.56,0,2.34-1,2.34-3.11s-.78-3.11-2.33-3.11a2.08,2.08,0,0,0-1.76.78A3.86,3.86,0,0,0,331.38,230.05Z" transform="translate(-81.87 -89.72)"/><path class="cls-4" d="M241.12,279.24a.89.89,0,0,0,.32,0,1,1,0,0,0,.29-.11c.19-.09.39-.29.35-.43a.22.22,0,0,0-.15-.13.41.41,0,0,0-.33.14,11.86,11.86,0,0,0-2.86,3.92,13.15,13.15,0,0,0-1.08,3.45c-.86,2.91-1,3.63-1,3.64a7.52,7.52,0,0,0,.71-3.92c0-.33-.05-.53-.08-.73A7.78,7.78,0,0,0,237,284a6.9,6.9,0,0,1,.42-3.71,8.71,8.71,0,0,1,3.3-4.07,10.3,10.3,0,0,1,4.18-1.73,11.83,11.83,0,0,1-1.29,6.83,8.54,8.54,0,0,1-3.35,3.66,7.46,7.46,0,0,1-2.26.83" transform="translate(-81.87 -89.72)"/><path class="cls-5" d="M278.28,267.84a.76.76,0,0,1-.06-.21,1,1,0,0,1,0-.21c0-.14.12-.31.22-.3a.14.14,0,0,1,.1.07.25.25,0,0,1,0,.23,8,8,0,0,1-2,2.56,9.12,9.12,0,0,1-2,1.32c-1.72,1.08-2.15,1.34-2.16,1.32a5.08,5.08,0,0,1,2.4-1.17l.48-.07,1.45-.23a4.23,4.23,0,0,0,1.62-.74,5.51,5.51,0,0,0,2-2.87,6.79,6.79,0,0,0,.35-3,8,8,0,0,0-4.16,2.07,5.67,5.67,0,0,0-1.75,2.82,5,5,0,0,0-.12,1.6" transform="translate(-81.87 -89.72)"/><path class="cls-4" d="M253,295a.81.81,0,0,1,.3-.18,1.19,1.19,0,0,1,.32-.06c.22,0,.52,0,.56.19a.19.19,0,0,1-.07.19.43.43,0,0,1-.36.07,12.6,12.6,0,0,1-4.77-1.91,14.27,14.27,0,0,1-2.91-2.47c-2.4-2.13-3-2.67-3-2.68a7.92,7.92,0,0,1,2.84,3.11c.15.31.25.49.33.7a7.45,7.45,0,0,1,.38,1.14,7.37,7.37,0,0,0,2.45,3.09,9.27,9.27,0,0,0,5.25,1.79,10.74,10.74,0,0,0,4.71-.81,12.62,12.62,0,0,0-5-5.39,9.08,9.08,0,0,0-5.06-1.39,8,8,0,0,0-2.48.53" transform="translate(-81.87 -89.72)"/><path class="cls-6" d="M219.3,291.07a10.52,10.52,0,0,1-.09-1.33,11.94,11.94,0,0,1,2.16-7,11.6,11.6,0,0,1,3.17-3,11.17,11.17,0,0,1,5.1-1.68,14.84,14.84,0,0,1-.59,3.86,12.78,12.78,0,0,1-1.68,3.7,12.26,12.26,0,0,1-4.77,4.15,10.73,10.73,0,0,1-2.89.92" transform="translate(-81.87 -89.72)"/><path class="cls-6" d="M224.66,283a1,1,0,0,0,.38,0,1.22,1.22,0,0,0,.36-.09c.24-.1.51-.31.48-.48a.25.25,0,0,0-.17-.16c-.16-.06-.34.07-.4.11a14.17,14.17,0,0,0-3.91,4.33,65.21,65.21,0,0,0-3.59,7.93" transform="translate(-81.87 -89.72)"/><path class="cls-6" d="M238.74,299.16a1,1,0,0,0-.09.29,1.35,1.35,0,0,0,0,.29c0,.19.14.44.28.44a.16.16,0,0,0,.15-.09.41.41,0,0,0,0-.33,11,11,0,0,0-2.55-3.74,12.17,12.17,0,0,0-2.68-2c-2.29-1.67-2.86-2.07-2.87-2.05a7,7,0,0,0,3.22,1.86,6.86,6.86,0,0,0,1.72.26,7.78,7.78,0,0,1,3.35,1.09c2,1.25,2.48,3.72,2.68,4.64a8.82,8.82,0,0,1-.17,4.2c-.8-.1-4-.58-5.92-3a7.6,7.6,0,0,1-2.12-4.95,5.8,5.8,0,0,1,.28-1.7" transform="translate(-81.87 -89.72)"/><path class="cls-6" d="M220.43,298.57c.08.88-.18,4.4,2,6.7a10,10,0,0,0,6,3,11,11,0,0,0,5.26-.55c-.19-1-1-5-4.2-7.17a10,10,0,0,0-6.37-2.27,15.17,15.17,0,0,0-2.32.41" transform="translate(-81.87 -89.72)"/><path class="cls-6" d="M227.1,304a1.08,1.08,0,0,1,.32-.14,1.26,1.26,0,0,1,.34,0c.23,0,.5.1.49.26a.28.28,0,0,1-.13.2.49.49,0,0,1-.38,0c-1.76-.44-5.2-3.61-5.2-3.61-.7-.65-1.06-1-1.53-1.5a20.72,20.72,0,0,1-1.54-1.9c-.49-.66-1.13-1.54-1.86-2.63" transform="translate(-81.87 -89.72)"/><path class="cls-4" d="M253.62,281c-.29-.55-1.79-2.55-1.38-4.73a7,7,0,0,1,2.45-4.06,7.76,7.76,0,0,1,3.33-1.66,8.11,8.11,0,0,1,.23,5.86,7.08,7.08,0,0,1-2.93,3.76,10,10,0,0,1-1.54.63" transform="translate(-81.87 -89.72)"/><path class="cls-4" d="M255.53,275.23a.8.8,0,0,0,.24,0,.84.84,0,0,0,.22-.11c.14-.09.26-.25.19-.35a.26.26,0,0,0-.15-.07.34.34,0,0,0-.24.13,9.83,9.83,0,0,0-1.42,3.14,24,24,0,0,0-.65,2.45c-.06.34-.12.8-.19,1.72s-.08.94-.09,1.5" transform="translate(-81.87 -89.72)"/><path class="cls-4" d="M255.8,284.91c.33.53,1.29,2.83,3.37,3.6a7.07,7.07,0,0,0,4.74,0,7.71,7.71,0,0,0,3.13-2,8.13,8.13,0,0,0-4.92-3.18,7.05,7.05,0,0,0-4.74.6,9.58,9.58,0,0,0-1.32,1" transform="translate(-81.87 -89.72)"/><path class="cls-4" d="M261.71,286.19a1.3,1.3,0,0,1,.17-.19,1,1,0,0,1,.2-.13c.15-.07.35-.09.39,0a.2.2,0,0,1,0,.17.31.31,0,0,1-.23.15,9.88,9.88,0,0,1-3.42-.39,23.87,23.87,0,0,1-2.44-.69c-.32-.12-.74-.31-1.57-.71s-.85-.41-1.34-.69" transform="translate(-81.87 -89.72)"/><path class="cls-5" d="M268.68,277.34a5.07,5.07,0,0,0,2.4,2.57,5,5,0,0,0,3.39,0,5.48,5.48,0,0,0,2.23-1.43,5.76,5.76,0,0,0-3.51-2.28,5.08,5.08,0,0,0-3.38.43,8.06,8.06,0,0,0-.95.71" transform="translate(-81.87 -89.72)"/><path class="cls-5" d="M272.9,278.26l.12-.14a.72.72,0,0,1,.14-.09c.11,0,.25-.07.28,0a.13.13,0,0,1,0,.12.19.19,0,0,1-.16.1,7,7,0,0,1-2.45-.27c-1-.3-1.08-.24-1.74-.5A10.44,10.44,0,0,1,268,277c-.6-.3-.61-.3-1-.5" transform="translate(-81.87 -89.72)"/><path class="cls-5" d="M267.05,274.43c-.26-.4-1.54-1.84-1.39-3.47a5,5,0,0,1,1.59-3.1,5.63,5.63,0,0,1,2.43-1.35,6,6,0,0,1,.59,4.35,5,5,0,0,1-2,2.89,7.75,7.75,0,0,1-1.12.53" transform="translate(-81.87 -89.72)"/><path class="cls-5" d="M268.11,270.1l.18,0a1.25,1.25,0,0,0,.16-.09c.1-.07.18-.2.12-.26a.18.18,0,0,0-.12,0,.25.25,0,0,0-.18.1,6.76,6.76,0,0,0-.86,2.39c-.18,1.07-.26,1.11-.32,1.84,0,.25,0,.59,0,1.28a10.23,10.23,0,0,0,0,1.12" transform="translate(-81.87 -89.72)"/><path class="cls-6" d="M201.61,296.4A144.3,144.3,0,0,0,275,271" transform="translate(-81.87 -89.72)"/><path class="cls-4" d="M249.81,133.9a.81.81,0,0,1,.32,0l.27.14c.18.12.36.35.3.48a.19.19,0,0,1-.16.1.38.38,0,0,1-.31-.17,11.81,11.81,0,0,1-2.38-4.23,13.19,13.19,0,0,1-.68-3.55c-.52-3-.62-3.73-.6-3.74a7.58,7.58,0,0,1,.25,4c-.07.33-.11.52-.17.72a8.77,8.77,0,0,1-.4,1.07,7,7,0,0,0,0,3.73A8.68,8.68,0,0,0,249,136.9a10.18,10.18,0,0,0,4,2.2,11.86,11.86,0,0,0-.48-6.94,8.58,8.58,0,0,0-2.91-4,7.61,7.61,0,0,0-2.14-1.08" transform="translate(-81.87 -89.72)"/><path class="cls-5" d="M285.39,149.55a.55.55,0,0,0-.08.2,1.1,1.1,0,0,0,0,.21c0,.14.09.32.18.33a.15.15,0,0,0,.12-.07.3.3,0,0,0,0-.23,7.94,7.94,0,0,0-1.7-2.77,8.69,8.69,0,0,0-1.85-1.55c-1.58-1.28-2-1.58-2-1.57a5,5,0,0,0,2.24,1.44l.48.14c1,.27,1.2.33,1.41.4a4.4,4.4,0,0,1,1.53.91,5.53,5.53,0,0,1,1.67,3.09,6.69,6.69,0,0,1,0,3,7.9,7.9,0,0,1-3.89-2.54,5.74,5.74,0,0,1-1.41-3,5,5,0,0,1,.07-1.61" transform="translate(-81.87 -89.72)"/><path class="cls-4" d="M263.41,119.67a1.14,1.14,0,0,0,.27.21l.31.1c.22,0,.52,0,.58-.13a.24.24,0,0,0-.05-.2c-.09-.12-.29-.11-.35-.11a12.54,12.54,0,0,0-5,1.34A14.2,14.2,0,0,0,256,123c-2.64,1.83-3.28,2.3-3.26,2.32a8,8,0,0,0,3.18-2.76c.19-.29.31-.47.42-.66a7.78,7.78,0,0,0,.5-1.09,7.34,7.34,0,0,1,2.8-2.78,9.24,9.24,0,0,1,5.42-1.17,10.93,10.93,0,0,1,4.58,1.35A12.41,12.41,0,0,1,264.1,123a9.06,9.06,0,0,1-5.18.8,8.17,8.17,0,0,1-2.41-.82" transform="translate(-81.87 -89.72)"/><path class="cls-6" d="M229.51,119.61c-.07.31-.17.76-.24,1.31a11.94,11.94,0,0,0,1.34,7.21,11.12,11.12,0,0,0,7.66,5.63,14.46,14.46,0,0,0-.13-3.91,12.83,12.83,0,0,0-1.25-3.87,12.25,12.25,0,0,0-4.25-4.68,10.82,10.82,0,0,0-2.76-1.25" transform="translate(-81.87 -89.72)"/><path class="cls-6" d="M233.9,128.27a1.25,1.25,0,0,1,.38,0,1.3,1.3,0,0,1,.35.14c.23.12.47.36.41.53a.26.26,0,0,1-.18.14.53.53,0,0,1-.39-.16,14.36,14.36,0,0,1-3.37-4.75,65.19,65.19,0,0,1-2.65-8.3" transform="translate(-81.87 -89.72)"/><path class="cls-6" d="M249.77,113.83a.85.85,0,0,1-.06-.29,1.37,1.37,0,0,1,0-.29c.05-.19.19-.42.32-.41a.2.2,0,0,1,.14.11.39.39,0,0,1-.05.33,11,11,0,0,1-3,3.42,12.21,12.21,0,0,1-2.9,1.71c-2.47,1.4-3.08,1.72-3.09,1.71a6.86,6.86,0,0,1,3.41-1.48,7.14,7.14,0,0,1,1.74-.06,7.69,7.69,0,0,0,3.46-.7c2.12-1,2.89-3.39,3.19-4.28a8.63,8.63,0,0,0,.32-4.2c-.8,0-4.07.1-6.22,2.26a7.62,7.62,0,0,0-2.68,4.67,6,6,0,0,0,.08,1.72" transform="translate(-81.87 -89.72)"/><path class="cls-6" d="M231.52,112.29c.17-.86.32-4.4,2.72-6.42a9.9,9.9,0,0,1,6.33-2.26,11,11,0,0,1,5.15,1.15c-.3,1-1.62,4.86-5,6.64a10,10,0,0,1-6.59,1.51,14,14,0,0,1-2.25-.68" transform="translate(-81.87 -89.72)"/><path class="cls-6" d="M238.76,107.71a1.43,1.43,0,0,0,.31.17,1,1,0,0,0,.33.07c.23,0,.51,0,.52-.2a.28.28,0,0,0-.11-.22.43.43,0,0,0-.37-.08c-1.8.23-5.59,3-5.59,3-.77.56-1.16.85-1.69,1.31-.24.21-.72.64-1.75,1.71-.56.6-1.3,1.4-2.15,2.4" transform="translate(-81.87 -89.72)"/><path class="cls-4" d="M262.42,133.64c-.35.51-2.06,2.32-1.91,4.53a7.06,7.06,0,0,0,2,4.32,7.8,7.8,0,0,0,3.11,2,8.11,8.11,0,0,0,.91-5.79,7,7,0,0,0-2.47-4.08,10.27,10.27,0,0,0-1.45-.81" transform="translate(-81.87 -89.72)"/><path class="cls-4" d="M263.66,139.56a1.16,1.16,0,0,1,.24.07,1,1,0,0,1,.2.13c.12.11.23.28.15.37a.25.25,0,0,1-.17.05.33.33,0,0,1-.22-.16,9.66,9.66,0,0,1-1-3.28c-.2-1.47-.31-1.52-.36-2.51,0-.34,0-.8,0-1.72s0-.95.09-1.51" transform="translate(-81.87 -89.72)"/><path class="cls-4" d="M265.06,130c.38-.49,1.6-2.66,3.76-3.18a7.12,7.12,0,0,1,4.7.59,7.73,7.73,0,0,1,2.87,2.37,8.11,8.11,0,0,1-5.26,2.59,7.09,7.09,0,0,1-4.63-1.15,11.37,11.37,0,0,1-1.2-1.14" transform="translate(-81.87 -89.72)"/><path class="cls-4" d="M271.07,129.39a1.05,1.05,0,0,0,.15.21.79.79,0,0,0,.18.15c.14.09.34.13.39,0a.2.2,0,0,0,0-.17c0-.11-.17-.15-.21-.17a9.84,9.84,0,0,0-3.45,0,23.28,23.28,0,0,0-2.49.4c-.34.09-.78.22-1.65.52s-.89.31-1.41.53" transform="translate(-81.87 -89.72)"/><path class="cls-5" d="M277,139a5,5,0,0,1,2.68-2.27,5,5,0,0,1,3.36.42,5.6,5.6,0,0,1,2.05,1.69,5.83,5.83,0,0,1-3.75,1.85,5.05,5.05,0,0,1-3.31-.82,7.77,7.77,0,0,1-.86-.82" transform="translate(-81.87 -89.72)"/><path class="cls-5" d="M281.26,138.57a1,1,0,0,0,.1.15.68.68,0,0,0,.14.11c.09.06.24.09.28,0a.17.17,0,0,0,0-.12.23.23,0,0,0-.15-.12,7.12,7.12,0,0,0-2.47,0,15.67,15.67,0,0,0-1.78.29c-.24.06-.55.15-1.17.37a10.6,10.6,0,0,0-1,.38" transform="translate(-81.87 -89.72)"/><path class="cls-5" d="M275,141.7c-.31.36-1.75,1.64-1.79,3.28a4.93,4.93,0,0,0,1.22,3.26,5.62,5.62,0,0,0,2.25,1.62,6,6,0,0,0,1.1-4.24,4.91,4.91,0,0,0-1.63-3.11,6.61,6.61,0,0,0-1.06-.65" transform="translate(-81.87 -89.72)"/><path class="cls-5" d="M275.55,146.12l.18.06a.36.36,0,0,1,.14.11c.09.08.16.21.1.27a.16.16,0,0,1-.13,0,.2.2,0,0,1-.16-.12,6.71,6.71,0,0,1-.58-2.47c-.05-1.09-.14-1.13-.11-1.86,0-.26,0-.6.13-1.28s.09-.7.17-1.11" transform="translate(-81.87 -89.72)"/><path class="cls-6" d="M212.57,112.25a146.18,146.18,0,0,1,48.65,18.18A144,144,0,0,1,282.55,146" transform="translate(-81.87 -89.72)"/></svg>